<svg xmlns="http://www.w3.org/2000/svg" height="48" viewBox="0 96 960 960" width="48"><path d="M738.261 613.087v-74.044h171.392v74.044H738.261Zm64.001 297.826L664.261 808.739l44.652-59.783L846.349 851l-44.087 59.913Zm-90.349-508.869-44.652-59.783 135.001-101.174 44.087 59.348-134.436 101.609Zm-531.436 470V711.74h-55.39q-32.088-2.261-52.914-25.283-20.826-23.022-20.826-54.675V520.218q0-32.783 23.087-56.653 23.087-23.87 57.436-23.87h167.739L519.74 307.782v536.436L299.609 711.74H264.13v160.304h-83.653ZM566.174 724.87V426.565q32.087 25.565 52.696 64.239 20.609 38.674 20.609 85.196t-20.609 85.196q-20.609 38.674-52.696 63.674Z"/></svg>